<svg width="157.85" height="36.001" viewBox="0 0 157.85 36.001" xmlns="http://www.w3.org/2000/svg"><g id="svgGroup" stroke-linecap="round" fill-rule="evenodd" font-size="9pt" stroke="#000" stroke-width="0.25mm" fill="#000" style="stroke:#000;stroke-width:0.25mm;fill:#000"><path d="M 70.1 35.75 L 66.6 35.75 L 66.6 0.3 L 70.1 0.3 L 70.1 20.9 L 89.65 0.25 L 93.5 0.25 L 79 15.85 L 94.25 35.75 L 90.3 35.75 L 76.75 17.95 L 70.1 24.85 L 70.1 35.75 Z M 124.4 7.75 L 121.7 9.55 A 12.68 12.68 0 0 0 119.854 6.841 A 10.174 10.174 0 0 0 117.15 4.7 A 12.877 12.877 0 0 0 111.558 3.169 A 15.346 15.346 0 0 0 110.8 3.15 A 12.009 12.009 0 0 0 107.5 3.591 A 10.509 10.509 0 0 0 105.475 4.4 Q 103.1 5.65 101.4 7.75 Q 99.7 9.85 98.825 12.5 Q 97.95 15.15 97.95 18 Q 97.95 21 98.95 23.675 Q 99.95 26.35 101.8 28.425 Q 103.65 30.5 106.075 31.675 Q 108.5 32.85 111.3 32.85 Q 114.55 32.85 117.45 31.225 Q 120.07 29.757 122.485 26.841 A 27.663 27.663 0 0 0 123 26.2 L 123 29.9 Q 117.95 36 111.05 36 Q 107.5 36 104.45 34.475 Q 101.4 32.95 99.15 30.35 Q 96.9 27.75 95.675 24.55 Q 94.45 21.35 94.45 17.95 Q 94.45 14.35 95.675 11.125 Q 96.9 7.9 99.1 5.4 Q 101.3 2.9 104.3 1.45 A 14.743 14.743 0 0 1 110.408 0.006 A 17.137 17.137 0 0 1 110.85 0 Q 115.023 0 117.964 1.358 A 11.325 11.325 0 0 1 119.4 2.15 Q 122.7 4.3 124.4 7.75 Z M 50 0.25 L 50 3.35 L 37.35 3.35 L 37.35 35.75 L 33.85 35.75 L 33.85 3.35 L 21.2 3.35 L 21.2 0.25 L 50 0.25 Z M 136.1 35.75 L 132.6 35.75 L 132.6 0.25 L 147.3 0.25 A 9.702 9.702 0 0 1 150.413 0.741 A 8.976 8.976 0 0 1 151.525 1.2 Q 153.45 2.15 154.85 3.775 Q 156.25 5.4 157.05 7.375 Q 157.85 9.35 157.85 11.4 Q 157.85 14.3 156.575 16.875 Q 155.3 19.45 153 21.05 Q 150.7 22.65 147.6 22.65 L 136.1 22.65 L 136.1 35.75 Z M 3.5 35.75 L 0 35.75 L 0 0.25 L 3.5 0.25 L 3.5 35.75 Z M 15.9 35.75 L 12.4 35.75 L 12.4 0.25 L 15.9 0.25 L 15.9 35.75 Z M 136.1 3.35 L 136.1 19.55 L 147.45 19.55 A 6.445 6.445 0 0 0 149.526 19.226 A 5.677 5.677 0 0 0 151.1 18.4 Q 152.65 17.25 153.5 15.4 A 9.434 9.434 0 0 0 154.349 11.534 A 10.807 10.807 0 0 0 154.35 11.4 Q 154.35 9.2 153.35 7.35 A 8.329 8.329 0 0 0 151.768 5.256 A 7.574 7.574 0 0 0 150.725 4.425 Q 149.1 3.35 147.15 3.35 L 136.1 3.35 Z M 122.45 35.75 L 122.45 21 L 114.55 21 L 114.55 18.3 L 125.4 18.3 L 125.4 35.75 L 122.45 35.75 Z" vector-effect="non-scaling-stroke"/></g></svg>